<svg xmlns="http://www.w3.org/2000/svg" xmlns:xlink="http://www.w3.org/1999/xlink" width="160" height="29" viewBox="0 0 160 29">
    <defs>
        <linearGradient id="b" x1="82.925%" x2="20.668%" y1="0%" y2="100%">
            <stop offset="0%" stop-color="#EA1469"/>
            <stop offset="100%" stop-color="#D2156F"/>
        </linearGradient>
        <path id="a" d="M0 28.56l17.93-6.934 4.008-20.1z"/>
        <path id="c" d="M25.517 0L6.323 6.888 2.5 18.57 25.518 0z"/>
    </defs>
    <g fill="none" fill-rule="evenodd">
        <use fill="url(#b)" xlink:href="#a"/>
        <use fill="#C31473" xlink:href="#c"/>
        <g fill="#2B0A16">
            <path d="M37.448 9.982c-.713.768-1.142 1.866-1.287 3.296h7.967c-.062-1.43-.419-2.528-1.07-3.296-.651-.767-1.565-1.151-2.743-1.151-1.198 0-2.154.384-2.867 1.151zm9.376 5.125H36.13c.227 3.26 1.818 4.89 4.774 4.89 1.735 0 3.305-.58 4.711-1.736l.961 2.24c-.703.61-1.57 1.093-2.604 1.45a9.602 9.602 0 0 1-3.161.536c-2.418 0-4.324-.704-5.719-2.113C33.697 18.966 33 17.021 33 14.54c0-1.578.304-2.976.914-4.195.61-1.22 1.467-2.166 2.573-2.839 1.105-.672 2.36-1.01 3.766-1.01 2.046 0 3.652.674 4.82 2.02 1.167 1.345 1.751 3.206 1.751 5.582v1.009zM50.264 22.266h3.131V.031h-3.13zM65.948 18.94c.723-.79 1.085-1.803 1.085-3.044v-.82h-.558c-1.612 0-2.851.074-3.72.22-.868.148-1.487.395-1.86.742-.371.347-.557.846-.557 1.497 0 .737.263 1.352.79 1.846s1.204.74 2.03.74c1.136 0 2.066-.393 2.79-1.182m2.65-10.897c.982 1.03 1.473 2.598 1.473 4.7v9.525h-3.007v-2.555c-.393.904-.977 1.592-1.751 2.066-.775.473-1.68.71-2.713.71-.991 0-1.901-.206-2.727-.615-.827-.41-1.472-.983-1.937-1.72a4.51 4.51 0 0 1-.698-2.46c0-1.114.284-1.992.853-2.633.568-.641 1.508-1.099 2.82-1.372 1.312-.273 3.115-.41 5.409-.41h.713v-.915c0-1.177-.243-2.029-.729-2.554-.485-.526-1.276-.789-2.37-.789-1.716 0-3.431.536-5.146 1.608l-.93-2.239c.806-.567 1.782-1.025 2.93-1.372 1.146-.346 2.247-.52 3.3-.52 2.025 0 3.529.516 4.51 1.545M73.386 20.532l.962-2.302c1.549 1.22 3.357 1.828 5.424 1.828 1.011 0 1.786-.173 2.324-.52.537-.347.806-.835.806-1.466 0-.547-.181-.978-.542-1.293-.362-.316-.987-.579-1.876-.789l-2.51-.568c-1.344-.315-2.356-.83-3.037-1.545-.683-.715-1.023-1.62-1.023-2.712 0-1.388.552-2.513 1.657-3.375 1.105-.862 2.558-1.293 4.355-1.293 1.075 0 2.098.174 3.069.52.971.347 1.808.836 2.51 1.467l-.96 2.24c-1.488-1.2-3.027-1.799-4.618-1.799-.951 0-1.7.19-2.248.568-.547.379-.821.894-.821 1.545 0 .526.17.952.512 1.278.34.326.883.573 1.627.741l2.572.599c1.468.337 2.542.857 3.224 1.561.682.705 1.023 1.625 1.023 2.76 0 1.388-.553 2.487-1.658 3.296-1.106.81-2.6 1.214-4.48 1.214-2.624 0-4.721-.651-6.291-1.955M95.687 19.933l-.155 2.428c-.517.084-1.054.126-1.612.126-1.963 0-3.425-.489-4.386-1.466-.96-.978-1.44-2.392-1.44-4.242V2.239h3.13v4.636h4.153v2.46h-4.153v7.318c0 2.25 1.023 3.375 3.068 3.375.475 0 .94-.032 1.395-.095M98.074 22.267h3.13V6.875h-3.13v15.392zM97.856 3.31h3.596V0h-3.596V3.31zM115.323 18.545c.733-.946 1.1-2.292 1.1-4.037s-.367-3.091-1.1-4.037c-.734-.946-1.782-1.42-3.146-1.42-1.344 0-2.398.49-3.162 1.467-.765.978-1.147 2.33-1.147 4.053 0 1.724.377 3.054 1.132 3.99.753.936 1.813 1.403 3.177 1.403s2.412-.473 3.146-1.42zm4.199-11.67v21.069h-3.13V19.68a4.813 4.813 0 0 1-1.968 2.082c-.858.483-1.855.725-2.991.725-1.323 0-2.496-.325-3.518-.977-1.023-.652-1.813-1.577-2.372-2.776-.558-1.198-.836-2.586-.836-4.163 0-1.598.283-3.007.852-4.226.568-1.22 1.364-2.166 2.387-2.839 1.022-.673 2.185-1.01 3.487-1.01 1.136 0 2.138.253 3.006.758a4.94 4.94 0 0 1 1.984 2.144V6.875h3.099zM137.159 6.875v15.392h-3.038v-2.492c-.475.883-1.131 1.556-1.968 2.018-.837.463-1.773.694-2.805.694-3.679 0-5.517-2.06-5.517-6.182v-9.43h3.13v9.4c0 1.24.248 2.154.744 2.743s1.26.883 2.294.883c1.218 0 2.195-.4 2.929-1.198.733-.8 1.1-1.861 1.1-3.186V6.875h3.13zM141.529 22.267h3.13V6.875h-3.13v15.392zm-.217-18.956h3.595V0h-3.595V3.31zM149.03 22.266h3.13V.031h-3.13zM156.53 22.266h3.13V.031h-3.13z"/>
        </g>
    </g>
</svg>
