<svg xmlns="http://www.w3.org/2000/svg" width="23.035" height="24"><path d="M2.976 24a2.847 2.847 0 01-2.045-.8A3.616 3.616 0 010 20.529V5.456A2.889 2.889 0 013.043 2.29H4.8V.9a.913.913 0 011.828 0v1.388h9.635V.9a.913.913 0 011.826 0v1.389h1.862a3.163 3.163 0 012.295.946 3.261 3.261 0 01.785 2.241V6.3c.007 8.461 0 13.4-.007 14.688A2.888 2.888 0 0120.1 24H2.982zm-1.15-3.467a1.966 1.966 0 00.4 1.391 1.051 1.051 0 00.76.266H20.1a1.061 1.061 0 001.1-1.212c.009-1.089.008-4.664.007-8.12V9.604H1.826zM3.9 4.1h-.85c-.858 0-1.224.41-1.224 1.356v2.336h19.38V5.4a1.47 1.47 0 00-.323-.952 1.306 1.306 0 00-.961-.345h-1.833v1.33a.913.913 0 01-1.826 0V4.1H6.628v1.33a.913.913 0 01-1.826 0V4.1zm12.17 14.123a1.114 1.114 0 111.114 1.1 1.108 1.108 0 01-1.116-1.102zm-5.7 0a1.114 1.114 0 111.114 1.1 1.108 1.108 0 01-1.113-1.102zm-5.7 0a1.114 1.114 0 111.114 1.1 1.108 1.108 0 01-1.11-1.102zm11.394-4.975a1.114 1.114 0 111.114 1.1 1.108 1.108 0 01-1.11-1.102zm-5.7 0a1.114 1.114 0 111.114 1.1 1.108 1.108 0 01-1.107-1.102z" fill="#354052"/></svg>