<svg xmlns="http://www.w3.org/2000/svg" width="18" height="18.001" viewBox="0 0 18 18.001"><defs><style>.a{fill:#1991eb;fill-rule:evenodd;}</style></defs><path class="a" d="M329.939,442.839a1.1,1.1,0,0,1-1.088.975l-.065,0h-.08a1.226,1.226,0,0,0-1.115.742,1.213,1.213,0,0,0,.308,1.367,1.1,1.1,0,0,1,.118,1.508,9,9,0,0,1-1.456,1.44,1.121,1.121,0,0,1-.681.234,1.107,1.107,0,0,1-.813-.358,1.3,1.3,0,0,0-.939-.39,1.128,1.128,0,0,0-.422.078,1.219,1.219,0,0,0-.749,1.17,1.108,1.108,0,0,1-.981,1.136,8.87,8.87,0,0,1-.988.055,9.005,9.005,0,0,1-1.038-.06,1.1,1.1,0,0,1-.972-1.16,1.215,1.215,0,0,0-.741-1.189,1.107,1.107,0,0,0-.429-.082,1.29,1.29,0,0,0-.937.39,1.1,1.1,0,0,1-1.509.119,8.9,8.9,0,0,1-1.424-1.442,1.1,1.1,0,0,1,.121-1.493,1.221,1.221,0,0,0,.309-1.357,1.2,1.2,0,0,0-1.088-.751h-.044a1.186,1.186,0,0,1-1.182-.978,8.98,8.98,0,0,1,0-2.047,1.091,1.091,0,0,1,1.124-.974,1.3,1.3,0,0,0,1.224-.74,1.215,1.215,0,0,0-.307-1.367,1.106,1.106,0,0,1-.119-1.508,8.937,8.937,0,0,1,1.457-1.44,1.1,1.1,0,0,1,1.5.125,1.3,1.3,0,0,0,.939.388,1.115,1.115,0,0,0,.419-.077,1.221,1.221,0,0,0,.749-1.172,1.108,1.108,0,0,1,.981-1.135,9.009,9.009,0,0,1,2.025.005,1.1,1.1,0,0,1,.974,1.16,1.218,1.218,0,0,0,.74,1.19,1.126,1.126,0,0,0,.428.081,1.289,1.289,0,0,0,.937-.388,1.1,1.1,0,0,1,1.508-.122,8.851,8.851,0,0,1,1.427,1.441,1.106,1.106,0,0,1-.122,1.5,1.209,1.209,0,0,0,.834,2.106,1.179,1.179,0,0,1,1.172.978A8.983,8.983,0,0,1,329.939,442.839Zm-1.481-1.742a2.412,2.412,0,0,1-1.681-4.085,7.4,7.4,0,0,0-.975-.986,2.515,2.515,0,0,1-1.718.671,2.3,2.3,0,0,1-.894-.175,2.422,2.422,0,0,1-1.481-2.21,7.513,7.513,0,0,0-1.387,0,2.26,2.26,0,0,1-1.55,2.024,2.236,2.236,0,0,1-.823.314,2.519,2.519,0,0,1-1.718-.669,7.448,7.448,0,0,0-1,.988,2.42,2.42,0,0,1,.494,2.614,2.483,2.483,0,0,1-2.207,1.475,7.435,7.435,0,0,0,0,1.409,2.413,2.413,0,0,1,1.681,4.087,7.433,7.433,0,0,0,.974.987,2.514,2.514,0,0,1,1.718-.672,2.3,2.3,0,0,1,.895.176,2.421,2.421,0,0,1,1.481,2.21,7.518,7.518,0,0,0,1.387,0,2.426,2.426,0,0,1,1.5-2.17,2.324,2.324,0,0,1,.878-.168,2.524,2.524,0,0,1,1.716.669,7.447,7.447,0,0,0,1-.988,2.418,2.418,0,0,1-.5-2.613,2.446,2.446,0,0,1,2.21-1.481A7.46,7.46,0,0,0,328.459,441.1ZM321,444.792a3,3,0,1,1,2.994-3A3,3,0,0,1,321,444.792Zm0-4.494a1.5,1.5,0,1,0,1.5,1.5A1.5,1.5,0,0,0,321,440.3Z" transform="translate(-312 -432.791)"/></svg>