<svg xmlns="http://www.w3.org/2000/svg" width="19.351" height="24"><path d="M17.227 24H2.123A2.126 2.126 0 010 21.877V2.123A2.126 2.126 0 012.123 0h15.1a2.126 2.126 0 012.123 2.123v19.754A2.126 2.126 0 0117.227 24zM2.123 1.82a.308.308 0 00-.3.3v19.757a.307.307 0 00.3.3h15.1a.307.307 0 00.3-.3V2.123a.308.308 0 00-.3-.3zM14.146 18.7H5.117a.91.91 0 010-1.82h9.029a.91.91 0 010 1.82zm.044-3.815H5.161a.91.91 0 010-1.82h9.029a.91.91 0 010 1.82zm-.044-3.81H5.117a.91.91 0 010-1.82h9.029a.91.91 0 010 1.82zm-3.594-3.819H5.117a.91.91 0 010-1.82h5.435a.91.91 0 010 1.82z" fill="#354052"/></svg>