<svg xmlns="http://www.w3.org/2000/svg" width="20" height="20" viewBox="0 0 20 20">
    <path fill="#D9156D" fill-rule="nonzero" d="M4 1c-1.103 0-2 .897-2 2v10c0-1.474.81-2.75 2-3.443V5h14.002L18 17h-4a3.96 3.96 0 0 1-.557 2H18c1.103 0 2-.897 2-2V3c0-1.103-.897-2-2-2H4zm10 9a2 2 0 0 0-1.861 2.725l-1.84 2.3A2 2 0 0 0 10 15a2 2 0 0 0-.518.068L7.93 13.516A2 2 0 0 0 8 13a2 2 0 1 0-3.861.727l-2.92 3.648 1.562 1.25 2.92-3.65A2 2 0 0 0 6 15a2 2 0 0 0 .518-.068l1.552 1.552A2 2 0 0 0 8 17a2 2 0 1 0 3.861-.727l1.844-2.302c.097.014.194.029.295.029a2 2 0 1 0 0-4z"/>
</svg>
