<svg xmlns="http://www.w3.org/2000/svg" width="24" height="24" viewBox="0 0 24 24"><defs><style>.a{fill:#b9c0c9;fill-rule:evenodd;}</style></defs><path class="a" d="M12,0A12,12,0,1,0,24,12,12,12,0,0,0,12,0Zm6.974,17.557v-.235L17.882,16.25a.326.326,0,0,1-.124-.313V8.063a.326.326,0,0,1,.124-.313L19,6.678V6.443H15.131l-2.758,6.88L9.235,6.443H5.176v.235L6.484,8.253a.539.539,0,0,1,.176.457V14.9a.713.713,0,0,1-.189.614L5,17.3v.235H9.17V17.3L7.7,15.512a.737.737,0,0,1-.2-.614V9.546l3.66,7.985h.425l3.143-7.985v6.365c0,.17,0,.2-.111.313l-1.13,1.1v.235h5.49Z"/></svg>