<svg xmlns="http://www.w3.org/2000/svg" width="17.995" height="18" viewBox="0 0 17.995 18"><defs><style>.a{fill:#f7981c;}</style></defs><path class="a" d="M9,18A9,9,0,0,1,2.631,2.637,9,9,0,0,1,15.359,15.363,8.941,8.941,0,0,1,9,18ZM9,1.4a7.6,7.6,0,0,0-5.372,12.97A7.6,7.6,0,1,0,14.367,3.628,7.547,7.547,0,0,0,9,1.4Zm3.911,8.452A.855.855,0,1,1,13.761,9,.856.856,0,0,1,12.906,9.855ZM9,9.855A.855.855,0,1,1,9.852,9,.856.856,0,0,1,9,9.855Zm-3.909,0A.855.855,0,1,1,5.943,9,.856.856,0,0,1,5.088,9.855Z" transform="translate(0)"/></svg>