<svg xmlns="http://www.w3.org/2000/svg" width="24" height="22.542"><path d="M4.405 22.542a.963.963 0 01-.387-.085.92.92 0 01-.524-.826v-4.636H2.127A2.066 2.066 0 010 15V2a2.068 2.068 0 012.127-2h19.746A2.068 2.068 0 0124 2v13a2.066 2.066 0 01-2.127 1.993H11.417l-6.43 5.334a.9.9 0 01-.582.215zM2.127 1.823c-.186 0-.3.116-.3.177v13c0 .06.115.17.3.17h2.278a.912.912 0 01.911.912v3.6l5.191-4.3a.1.1 0 01.03-.022l.022-.015.06-.04.035-.021a1.812 1.812 0 01.168-.069l.04-.014a.4.4 0 01.085-.012.509.509 0 01.1-.012.093.093 0 00.021 0 .093.093 0 01.021 0h10.784c.189 0 .3-.11.3-.17V2c0-.061-.118-.177-.3-.177zM17.434 9.6a1.112 1.112 0 111.111-1.112A1.113 1.113 0 0117.434 9.6zm-5.081 0a1.112 1.112 0 111.111-1.112A1.113 1.113 0 0112.353 9.6zm-5.08 0a1.112 1.112 0 111.111-1.112A1.113 1.113 0 017.273 9.6z" fill="#354052"/></svg>