<svg xmlns="http://www.w3.org/2000/svg" width="24" height="24" viewBox="0 0 24 24"><defs><style>.a{fill:#b9c0c9;}</style></defs><path class="a" d="M14.238,15.348a.215.215,0,0,1,0,.306,3.045,3.045,0,0,1-2.231.687l-.008,0-.008,0a3.042,3.042,0,0,1-2.231-.688.214.214,0,0,1,0-.305.219.219,0,0,1,.307,0,2.653,2.653,0,0,0,1.924.561l.008,0,.008,0a2.656,2.656,0,0,0,1.924-.561A.219.219,0,0,1,14.238,15.348ZM10.8,12.93a.923.923,0,1,0-.922.918A.922.922,0,0,0,10.8,12.93ZM24,12A12,12,0,1,1,12,0,12,12,0,0,1,24,12Zm-5-.129a1.548,1.548,0,0,0-2.624-1.108A7.993,7.993,0,0,0,12.31,9.569l.865-2.724,2.343.549,0,.034A1.271,1.271,0,1,0,15.6,6.97l-2.525-.592a.216.216,0,0,0-.257.145l-.965,3.038A8.088,8.088,0,0,0,7.6,10.742,1.541,1.541,0,1,0,5.768,13.2a2.779,2.779,0,0,0-.05.5c0,2.281,2.805,4.137,6.253,4.137s6.253-1.856,6.253-4.137a2.744,2.744,0,0,0-.044-.472A1.537,1.537,0,0,0,19,11.871Zm-4.872.141a.919.919,0,1,0,.922.919A.921.921,0,0,0,14.128,12.012Z"/></svg>