<svg xmlns="http://www.w3.org/2000/svg" width="24" height="24" viewBox="0 0 24 24"><defs><style>.a{fill:#b9c0c9;}</style></defs><path class="a" d="M12,0A12,12,0,1,0,24,12,12,12,0,0,0,12,0Zm6.066,9.645A8.168,8.168,0,0,1,5.5,16.9a5.778,5.778,0,0,0,4.252-1.189,2.879,2.879,0,0,1-2.684-1.995,2.881,2.881,0,0,0,1.3-.049,2.876,2.876,0,0,1-2.3-2.853,2.865,2.865,0,0,0,1.3.359,2.877,2.877,0,0,1-.889-3.835,8.153,8.153,0,0,0,5.92,3,2.874,2.874,0,0,1,4.9-2.62,5.729,5.729,0,0,0,1.824-.7A2.884,2.884,0,0,1,17.85,8.609,5.73,5.73,0,0,0,19.5,8.156,5.765,5.765,0,0,1,18.066,9.645Z"/></svg>