<?xml version="1.0" standalone="no"?>
<!DOCTYPE svg PUBLIC "-//W3C//DTD SVG 20010904//EN"
 "http://www.w3.org/TR/2001/REC-SVG-20010904/DTD/svg10.dtd">
<svg version="1.0" xmlns="http://www.w3.org/2000/svg"
 width="237.000000pt" height="237.000000pt" viewBox="0 0 237.000000 237.000000"
 preserveAspectRatio="xMidYMid meet">
<metadata>
Created by potrace 1.11, written by Peter Selinger 2001-2013
</metadata>
<g transform="translate(0.000000,237.000000) scale(0.100000,-0.100000)"
fill="#000000" stroke="none">
<path d="M1880 2253 c-179 -63 -408 -144 -510 -180 -102 -35 -194 -68 -205
-73 -19 -8 -111 -40 -368 -129 -59 -21 -112 -42 -116 -47 -5 -5 -62 -166 -126
-359 -165 -495 -184 -556 -171 -548 9 6 149 116 294 232 534 425 818 648 821
645 2 -2 -14 -23 -35 -47 -21 -23 -75 -87 -119 -141 -44 -54 -84 -104 -90
-110 -5 -6 -39 -47 -75 -91 -35 -44 -67 -82 -70 -85 -3 -3 -174 -210 -380
-460 -206 -250 -382 -464 -392 -475 -128 -154 -228 -276 -228 -280 0 -2 10 0
23 5 12 5 116 45 232 89 417 157 1170 444 1173 446 4 3 80 369 118 565 3 14 7
32 9 40 2 8 7 29 10 45 2 17 7 39 9 50 2 11 14 67 25 125 12 58 23 114 25 125
3 11 25 121 50 244 26 124 47 225 49 226 1 1 81 64 177 140 172 135 209 166
200 164 -3 0 -151 -52 -330 -116z"/>
</g>
</svg>
